<svg width="147" height="93" viewBox="0 0 147 93" fill="none" xmlns="http://www.w3.org/2000/svg">
<path d="M23.7938 118.387C-4.2513 102.71 -4.2513 77.2913 23.7938 61.6083C51.8389 45.9253 97.3061 45.9313 125.351 61.6083C153.396 77.2853 153.393 102.704 125.351 118.387C97.3092 134.07 51.8358 134.064 23.7938 118.387Z" fill="#808080"/>
<path d="M106.692 78.4657C99.1888 82.6495 99.1888 89.46 106.692 93.6556C114.194 97.8513 126.36 97.8394 133.866 93.6556C141.372 89.4719 141.369 82.6584 133.866 78.4657C126.364 74.273 114.194 74.27 106.692 78.4657Z" fill="#4B4B4B"/>
<path d="M97.4358 119.81C97.3128 119.74 97.1861 119.676 97.0561 119.619C96.6001 119.469 96.1547 119.29 95.7229 119.084C95.2023 118.783 94.707 118.443 94.2414 118.068C92.9051 116.959 91.2477 116.116 89.8682 115.079C88.2787 113.884 86.5134 112.88 85.0999 111.493C83.5258 109.945 82.4703 107.991 81.2142 106.192C80.1062 104.605 78.7452 103.072 76.9891 102.244L78.5322 101.39L96.2969 91.4771C96.9142 91.1275 96.9142 90.5627 96.2969 90.216L50.9316 64.8417C50.5817 64.6707 50.1954 64.5816 49.8035 64.5816C49.4117 64.5816 49.0253 64.6707 48.6755 64.8417L10.3746 86.2564C9.75737 86.6061 9.75737 87.1709 10.3746 87.5175L55.7431 112.871C56.0929 113.042 56.4793 113.131 56.8711 113.131C57.263 113.131 57.6493 113.042 57.9992 112.871L61.1194 111.126L65.5976 108.606C65.5976 108.606 65.7859 110.642 66.7951 112.04C67.6778 113.262 70.2486 115.011 71.6591 115.611C72.9867 116.165 74.2782 116.797 75.5262 117.503C76.8687 118.271 78.2699 118.955 79.6124 119.741C80.3131 120.112 80.94 120.601 81.4642 121.185C81.7481 121.528 81.9642 121.914 82.2173 122.281C83.3032 123.773 84.8284 124.912 86.5936 125.551C88.3424 126.232 90.1933 126.635 92.0749 126.746C94.5069 126.877 97.1209 126.773 98.8987 124.893C99.5684 124.188 99.6023 122.646 99.2628 121.788C98.896 120.952 98.2536 120.256 97.4358 119.81Z" fill="#4B4B4B"/>
<path d="M18.6829 81.6155L15.93 83.1485L14.7695 83.797C14.6738 82.8736 14.4084 80.4739 14.0566 77.868C13.5597 74.2192 12.9486 71.6462 11.6215 69.1659C10.4209 66.9156 8.63705 64.7431 5.81618 61.9071C1.63735 57.7025 3.05704 53.6592 6.62788 53.3992C12.4548 52.9719 16.109 58.339 17.9823 64.3606C19.6335 69.6231 19.4267 77.4258 18.6829 81.6155Z" fill="#4D7447"/>
<path d="M16.9577 82.4552H16.933C16.872 82.4485 16.8163 82.4185 16.7781 82.372C16.7399 82.3255 16.7224 82.2662 16.7293 82.2072C18.1398 69.4677 13.2356 59.9079 7.7513 56.0828C7.70137 56.0479 7.66779 55.9953 7.65795 55.9364C7.64811 55.8776 7.66282 55.8173 7.69884 55.769C7.73485 55.7207 7.78923 55.6881 7.85 55.6786C7.91077 55.6691 7.97297 55.6833 8.0229 55.7182C13.6153 59.618 18.6181 69.3362 17.1892 82.255C17.1831 82.3102 17.156 82.3612 17.1132 82.3982C17.0705 82.4352 17.015 82.4555 16.9577 82.4552Z" fill="white"/>
<path d="M15.93 83.1485L14.7695 83.797L13.4301 84.565C13.1214 82.1743 12.1369 78.6211 9.25432 75.8658C5.95816 72.7191 1.74846 71.0187 1.00775 68.2574C0.304078 65.6366 2.76076 63.739 6.77911 65.1047C8.71595 65.8062 10.4129 67.0158 11.6801 68.5981C14.5566 72.0706 16.3651 77.7097 15.93 83.1485Z" fill="#71A669"/>
<path d="M14.7695 83.8777C14.7084 83.8761 14.6503 83.8515 14.6076 83.8091C14.565 83.7667 14.5411 83.7098 14.5411 83.6506C14.6337 75.5132 9.70182 69.5275 4.76993 67.2145C4.71468 67.1883 4.67242 67.142 4.65246 67.0857C4.63249 67.0293 4.63644 66.9677 4.66346 66.9142C4.69047 66.8607 4.73832 66.8197 4.79649 66.8004C4.85466 66.7811 4.91838 66.7849 4.97363 66.8111C10.0351 69.2018 15.0967 75.3339 15.0041 83.6655C15.0001 83.7231 14.9737 83.7771 14.9301 83.8165C14.8866 83.8559 14.8291 83.8778 14.7695 83.8777Z" fill="white"/>
<path d="M106.562 73.7291C106.57 73.6455 106.601 73.5654 106.651 73.4972C106.701 73.4289 106.77 73.3748 106.849 73.3407C107.064 73.2356 107.302 73.1808 107.543 73.1808C107.785 73.1808 108.022 73.2356 108.238 73.3407C108.317 73.3749 108.386 73.4289 108.437 73.4971C108.488 73.5654 108.519 73.6454 108.528 73.7291L105.028 85.5571C105.021 85.6152 104.999 85.6705 104.963 85.7177C104.927 85.7648 104.879 85.8022 104.824 85.8261C104.672 85.9011 104.504 85.9402 104.334 85.9402C104.163 85.9402 103.995 85.9011 103.843 85.8261C103.788 85.8022 103.74 85.7648 103.704 85.7177C103.669 85.6705 103.646 85.6152 103.639 85.5571L106.562 73.7291Z" fill="#455A64"/>
<path d="M133.548 73.7291C133.541 73.6455 133.51 73.5655 133.459 73.4972C133.409 73.4289 133.341 73.3749 133.261 73.3407C133.046 73.2351 132.807 73.1801 132.565 73.1801C132.324 73.1801 132.085 73.2351 131.869 73.3407C131.79 73.3749 131.722 73.4289 131.672 73.4972C131.621 73.5655 131.59 73.6455 131.582 73.7291L135.082 85.5571C135.089 85.6152 135.112 85.6705 135.147 85.7177C135.183 85.7648 135.231 85.8022 135.286 85.8261C135.438 85.9011 135.606 85.9403 135.777 85.9403C135.947 85.9403 136.115 85.9011 136.267 85.8261C136.323 85.8022 136.37 85.7648 136.406 85.7177C136.442 85.6705 136.464 85.6152 136.471 85.5571L133.548 73.7291Z" fill="#455A64"/>
<path d="M121.172 75.2443C121.165 75.1606 121.134 75.0806 121.083 75.0123C121.033 74.944 120.965 74.89 120.885 74.8558C120.67 74.7502 120.431 74.6952 120.189 74.6952C119.948 74.6952 119.709 74.7502 119.493 74.8558C119.414 74.89 119.346 74.944 119.295 75.0123C119.245 75.0806 119.214 75.1606 119.206 75.2443L119.493 90.8675C119.5 90.9249 119.522 90.9796 119.557 91.0263C119.592 91.0729 119.64 91.1099 119.694 91.1335C119.847 91.2085 120.015 91.2476 120.186 91.2476C120.357 91.2476 120.526 91.2085 120.679 91.1335C120.733 91.1099 120.78 91.0729 120.815 91.0263C120.851 90.9796 120.873 90.9249 120.879 90.8675L121.172 75.2443Z" fill="#455A64"/>
<path d="M137.789 67.1398C137.789 64.6206 136.085 62.1014 132.644 60.1769C125.765 56.3308 114.614 56.3308 107.735 60.1769C104.294 62.1014 102.59 64.6206 102.593 67.1398H102.574V68.4935C102.618 70.9798 104.34 73.4602 107.735 75.3668C114.614 79.2128 125.765 79.2128 132.644 75.3668C136.039 73.4692 137.764 70.9888 137.804 68.4935L137.789 67.1398Z" fill="#64B08C"/>
<path opacity="0.3" d="M137.789 67.1398C137.789 64.6206 136.085 62.1014 132.644 60.1769C125.765 56.3308 114.614 56.3308 107.735 60.1769C104.294 62.1014 102.59 64.6206 102.593 67.1398H102.574V68.4935C102.618 70.9798 104.34 73.4602 107.735 75.3668C114.614 79.2128 125.765 79.2128 132.644 75.3668C136.039 73.4692 137.764 70.9888 137.804 68.4935L137.789 67.1398Z" fill="white"/>
<path d="M107.719 60.1769C100.84 64.0229 100.84 70.2566 107.719 74.1027C114.599 77.9487 125.749 77.9487 132.629 74.1027C139.508 70.2566 139.508 64.0229 132.629 60.1769C125.749 56.3308 114.599 56.3308 107.719 60.1769Z" fill="#64B08C"/>
<path opacity="0.6" d="M107.719 60.1769C100.84 64.0229 100.84 70.2566 107.719 74.1027C114.599 77.9487 125.749 77.9487 132.629 74.1027C139.508 70.2566 139.508 64.0229 132.629 60.1769C125.749 56.3308 114.599 56.3308 107.719 60.1769Z" fill="white"/>
<path opacity="0.15" d="M109.213 67.2593L121.605 74.1864C121.978 74.3706 122.392 74.4666 122.811 74.4666C123.231 74.4666 123.644 74.3706 124.018 74.1864L132.178 69.6231C132.845 69.2525 132.845 68.6489 132.178 68.2753L119.787 61.3483C119.413 61.1641 118.999 61.068 118.58 61.068C118.161 61.068 117.747 61.1641 117.373 61.3483L109.213 65.9086C108.546 66.2821 108.546 66.8858 109.213 67.2593Z" fill="black"/>
<path d="M131.663 68.4696L122.728 73.4034L110.12 66.4016L119.052 61.4678L131.663 68.4696Z" fill="black"/>
<path d="M122.626 73.0269L131.243 68.2455C131.02 67.5369 131.036 66.7779 131.289 66.0789L122.716 70.8185C122.716 70.8185 122.564 71.3355 122.626 73.0269Z" fill="#F5F5F5"/>
<path d="M123.166 70.1371C122.926 70.2879 122.725 70.4915 122.582 70.7314C122.438 70.9714 122.355 71.2408 122.339 71.5177V73.1315C122.339 73.6395 122.709 73.8457 123.166 73.5917L131.666 68.87V68.4696L123.283 73.0986C123.009 73.251 122.787 73.1285 122.787 72.8207V71.3265C122.796 71.1603 122.846 70.9987 122.932 70.8549C123.019 70.711 123.139 70.589 123.283 70.4987L131.666 65.8697V65.4155L123.166 70.1371Z" fill="#263238"/>
<path d="M131.666 65.4185L119.052 58.4167L110.559 63.1354C110.318 63.2861 110.118 63.4897 109.974 63.7297C109.83 63.9696 109.747 64.239 109.732 64.516V66.1297C109.721 66.2284 109.738 66.328 109.78 66.4183C109.822 66.5086 109.889 66.5864 109.972 66.6437L122.583 73.6455C122.498 73.5888 122.431 73.5112 122.388 73.4207C122.345 73.3303 122.328 73.2304 122.339 73.1315V71.5177C122.355 71.2406 122.439 70.9711 122.583 70.7312C122.728 70.4912 122.928 70.2877 123.169 70.1371L131.666 65.4185Z" fill="#455A64"/>
<path d="M122.58 70.7318C122.431 70.9695 122.347 71.24 122.336 71.5177V73.1315C122.325 73.2304 122.342 73.3303 122.385 73.4207C122.428 73.5112 122.495 73.5888 122.58 73.6455L109.972 66.6347C109.889 66.5775 109.822 66.4997 109.78 66.4093C109.738 66.319 109.721 66.2194 109.732 66.1207V64.507C109.742 64.2296 109.825 63.9592 109.972 63.7211L122.58 70.7318Z" fill="#37474F"/>
<path d="M74.8781 0.738044C75.3705 0.957547 75.8278 1.24437 76.236 1.58973C76.6287 1.91486 76.958 2.30555 77.2082 2.74324C77.4475 3.16285 77.5897 3.62783 77.6249 4.10595C77.6561 4.61659 77.5497 5.12632 77.3162 5.58519C77.1489 5.95418 76.9077 6.28735 76.6064 6.56538C76.3383 6.80539 76.0358 7.00669 75.7083 7.16305C75.39 7.3115 75.0584 7.43153 74.7176 7.52166L73.7578 7.78165C73.4683 7.85671 73.1863 7.95673 72.9152 8.08049C72.6733 8.18985 72.468 8.36276 72.3226 8.57955C72.2518 8.67946 72.1534 8.75814 72.0387 8.80666C71.9853 8.83177 71.9267 8.84482 71.8674 8.84482C71.8081 8.84482 71.7495 8.83177 71.6961 8.80666L70.4894 8.26577C70.3731 8.21306 70.2824 8.11881 70.2363 8.00279C70.2114 7.94797 70.2004 7.88819 70.2042 7.82843C70.2079 7.76866 70.2263 7.71062 70.2579 7.65913C70.4438 7.29964 70.7044 6.9812 71.0233 6.72376C71.3101 6.49391 71.6278 6.3029 71.9677 6.15597C72.2936 6.01504 72.6312 5.90108 72.9769 5.8153C73.3195 5.73162 73.6405 5.64795 73.9368 5.56427C74.2076 5.49281 74.4695 5.39259 74.7176 5.26544C74.933 5.15532 75.1053 4.98007 75.2083 4.76638C75.3016 4.57839 75.3459 4.37114 75.3373 4.16275C75.3287 3.95436 75.2674 3.75119 75.1589 3.57103C74.8923 3.12689 74.4808 2.78107 73.9892 2.58785C73.088 2.1894 72.2177 2.32886 71.3782 3.00622C71.2949 3.08271 71.1975 3.14351 71.0912 3.18552C70.9779 3.2129 70.8581 3.19571 70.7579 3.13771L69.4709 2.56394C69.4251 2.54475 69.3838 2.51689 69.3494 2.48199C69.3149 2.44709 69.288 2.40586 69.2703 2.36073C69.2475 2.31402 69.2357 2.26299 69.2357 2.21131C69.2357 2.15964 69.2475 2.10861 69.2703 2.06189C69.4755 1.68334 69.7732 1.35914 70.1375 1.11757C70.5479 0.832279 71.0079 0.620726 71.4955 0.492996C72.0302 0.352952 72.5843 0.295466 73.1374 0.322659C73.7402 0.348741 74.3318 0.489907 74.8781 0.738044ZM71.3535 9.75398C71.41 9.77893 71.4605 9.8149 71.5019 9.85964C71.5434 9.90437 71.5748 9.95691 71.5943 10.014C71.6195 10.0685 71.6325 10.1276 71.6325 10.1873C71.6325 10.247 71.6195 10.3061 71.5943 10.3606L70.9492 11.7144C70.8963 11.8217 70.8024 11.9051 70.6873 11.9469C70.5722 11.9887 70.4448 11.9857 70.332 11.9385L68.9648 11.3408C68.8549 11.2884 68.77 11.1972 68.7275 11.086C68.6851 10.9749 68.6882 10.8521 68.7364 10.7431L69.3814 9.3894C69.4343 9.28201 69.5284 9.19884 69.6437 9.15755C69.7589 9.11625 69.8863 9.12009 69.9987 9.16825L71.3535 9.75398Z" fill="#64B08C"/>
<path d="M74.3843 16.7289C74.7375 16.847 75.0712 17.0141 75.375 17.2249C75.6669 17.4228 75.9199 17.6698 76.1219 17.9541C76.3128 18.2234 76.4422 18.529 76.5015 18.8506C76.5452 19.1627 76.5211 19.4802 76.4307 19.7828C76.3404 20.0854 76.1858 20.3664 75.9768 20.6078C75.8091 20.7869 75.6158 20.9419 75.4028 21.068C75.1933 21.1865 74.9733 21.2865 74.7454 21.3668L74.1034 21.6059C73.9101 21.6776 73.7241 21.7667 73.5479 21.8719C73.3886 21.9613 73.259 22.093 73.1744 22.2514C73.1321 22.3246 73.0703 22.3855 72.9954 22.4277C72.9594 22.4468 72.9196 22.4583 72.8786 22.4614C72.8376 22.4645 72.7965 22.4591 72.7578 22.4456L71.8906 22.1468C71.8079 22.1169 71.7397 22.0583 71.6992 21.9824C71.6795 21.9455 71.6691 21.9045 71.6691 21.8629C71.6691 21.8213 71.6795 21.7803 71.6992 21.7433C71.804 21.4855 71.9615 21.2507 72.1621 21.053C72.3468 20.8773 72.5543 20.7256 72.7794 20.6018C72.9949 20.4846 73.2199 20.3847 73.4522 20.303C73.6806 20.2223 73.8936 20.1446 74.0942 20.0669C74.2754 20.0001 74.4482 19.9139 74.6096 19.8099C74.752 19.7202 74.8604 19.588 74.9182 19.4333C74.9669 19.2986 74.9817 19.1545 74.9613 19.0132C74.9409 18.8718 74.8859 18.7372 74.8009 18.6205C74.5878 18.3328 74.2814 18.1225 73.9306 18.0228C73.6238 17.914 73.2898 17.8992 72.974 17.9805C72.6582 18.0618 72.3758 18.2351 72.1652 18.4771C72.1122 18.5345 72.0496 18.583 71.9801 18.6205C71.9058 18.6496 71.8228 18.6496 71.7486 18.6205L70.8227 18.3217C70.7894 18.3113 70.7586 18.2946 70.7321 18.2725C70.7056 18.2504 70.684 18.2235 70.6684 18.1932C70.653 18.1619 70.6451 18.1277 70.6451 18.093C70.6451 18.0584 70.653 18.0242 70.6684 17.9929C70.7776 17.7252 70.9511 17.4865 71.1745 17.2966C71.4372 17.0736 71.7394 16.8985 72.0665 16.7797C72.4241 16.6476 72.8013 16.5719 73.1837 16.5555C73.5917 16.5379 73.9993 16.5968 74.3843 16.7289ZM72.5757 23.1509C72.657 23.1789 72.7236 23.2369 72.7609 23.3122C72.7808 23.3493 72.7924 23.39 72.7951 23.4317C72.7978 23.4734 72.7914 23.5152 72.7763 23.5543L72.4245 24.5255C72.4111 24.565 72.3894 24.6013 72.3607 24.6322C72.332 24.6631 72.2969 24.6878 72.2578 24.7048C72.1797 24.7411 72.09 24.7465 72.0078 24.7198L71.0295 24.3851C70.989 24.3724 70.9517 24.3519 70.9198 24.3246C70.8879 24.2974 70.8622 24.264 70.8443 24.2267C70.8244 24.1896 70.8127 24.1489 70.8101 24.1072C70.8074 24.0656 70.8138 24.0238 70.8289 23.9846L71.1745 23.0044C71.1879 22.965 71.2097 22.9287 71.2384 22.8978C71.267 22.8669 71.3021 22.8422 71.3412 22.8251C71.3791 22.8063 71.4205 22.7952 71.463 22.7927C71.5055 22.7901 71.5481 22.7961 71.5881 22.8102L72.5757 23.1509Z" fill="#64B08C"/>
<g opacity="0.2">
<path d="M74.3843 16.7289C74.7375 16.847 75.0712 17.0141 75.375 17.2249C75.6669 17.4228 75.9199 17.6698 76.1219 17.9541C76.3128 18.2234 76.4422 18.529 76.5015 18.8506C76.5452 19.1627 76.5211 19.4802 76.4307 19.7828C76.3404 20.0854 76.1858 20.3664 75.9768 20.6078C75.8091 20.7869 75.6158 20.9419 75.4028 21.068C75.1933 21.1865 74.9733 21.2865 74.7454 21.3668L74.1034 21.6059C73.9101 21.6776 73.7241 21.7667 73.5479 21.8719C73.3886 21.9613 73.259 22.093 73.1744 22.2514C73.1321 22.3246 73.0703 22.3855 72.9954 22.4277C72.9594 22.4468 72.9196 22.4583 72.8786 22.4614C72.8376 22.4645 72.7965 22.4591 72.7578 22.4456L71.8906 22.1468C71.8079 22.1169 71.7397 22.0583 71.6992 21.9824C71.6795 21.9455 71.6691 21.9045 71.6691 21.8629C71.6691 21.8213 71.6795 21.7803 71.6992 21.7433C71.804 21.4855 71.9615 21.2507 72.1621 21.053C72.3468 20.8773 72.5543 20.7256 72.7794 20.6018C72.9949 20.4846 73.2199 20.3847 73.4522 20.303C73.6806 20.2223 73.8936 20.1446 74.0942 20.0669C74.2754 20.0001 74.4482 19.9139 74.6096 19.8099C74.752 19.7202 74.8604 19.588 74.9182 19.4333C74.9669 19.2986 74.9817 19.1545 74.9613 19.0132C74.9409 18.8718 74.8859 18.7372 74.8009 18.6205C74.5878 18.3328 74.2814 18.1225 73.9306 18.0228C73.6238 17.914 73.2898 17.8992 72.974 17.9805C72.6582 18.0618 72.3758 18.2351 72.1652 18.4771C72.1122 18.5345 72.0496 18.583 71.9801 18.6205C71.9058 18.6496 71.8228 18.6496 71.7486 18.6205L70.8227 18.3217C70.7894 18.3113 70.7586 18.2946 70.7321 18.2725C70.7056 18.2504 70.684 18.2235 70.6684 18.1932C70.653 18.1619 70.6451 18.1277 70.6451 18.093C70.6451 18.0584 70.653 18.0242 70.6684 17.9929C70.7776 17.7252 70.9511 17.4865 71.1745 17.2966C71.4372 17.0736 71.7394 16.8985 72.0665 16.7797C72.4241 16.6476 72.8013 16.5719 73.1837 16.5555C73.5917 16.5379 73.9993 16.5968 74.3843 16.7289ZM72.5757 23.1509C72.657 23.1789 72.7236 23.2369 72.7609 23.3122C72.7808 23.3493 72.7924 23.39 72.7951 23.4317C72.7978 23.4734 72.7914 23.5152 72.7763 23.5543L72.4245 24.5255C72.4111 24.565 72.3894 24.6013 72.3607 24.6322C72.332 24.6631 72.2969 24.6878 72.2578 24.7048C72.1797 24.7411 72.09 24.7465 72.0078 24.7198L71.0295 24.3851C70.989 24.3724 70.9517 24.3519 70.9198 24.3246C70.8879 24.2974 70.8622 24.264 70.8443 24.2267C70.8244 24.1896 70.8127 24.1489 70.8101 24.1072C70.8074 24.0656 70.8138 24.0238 70.8289 23.9846L71.1745 23.0044C71.1879 22.965 71.2097 22.9287 71.2384 22.8978C71.267 22.8669 71.3021 22.8422 71.3412 22.8251C71.3791 22.8063 71.4205 22.7952 71.463 22.7927C71.5055 22.7901 71.5481 22.7961 71.5881 22.8102L72.5757 23.1509Z" fill="black"/>
</g>
<path d="M85.7665 17.9242C85.8172 17.9277 85.8666 17.9412 85.9117 17.9638C85.9568 17.9864 85.9967 18.0177 86.0289 18.0557C86.0629 18.0923 86.0887 18.1354 86.1047 18.1822C86.1206 18.2291 86.1263 18.2786 86.1214 18.3276L86.0258 19.5409C86.0233 19.5902 86.0099 19.6384 85.9865 19.6822C85.963 19.7261 85.9301 19.7645 85.89 19.7949C85.8526 19.8279 85.8088 19.8531 85.761 19.8691C85.7132 19.885 85.6626 19.8913 85.6122 19.8876L84.3777 19.7949C84.2758 19.7873 84.1813 19.7408 84.1147 19.6658C84.0482 19.5907 84.0151 19.4931 84.0228 19.3945L84.1184 18.1782C84.1221 18.1292 84.136 18.0813 84.1593 18.0377C84.1827 17.994 84.215 17.9554 84.2542 17.9242C84.2917 17.8916 84.3357 17.8668 84.3835 17.8514C84.4313 17.836 84.4818 17.8303 84.532 17.8345L85.7665 17.9242ZM85.8128 10.0379C86.2543 10.0686 86.6889 10.1612 87.1029 10.3128C87.5001 10.4535 87.8681 10.662 88.1893 10.9284C88.4965 11.1841 88.7428 11.5011 88.9115 11.8578C89.089 12.2387 89.1603 12.6581 89.1182 13.0741C89.1001 13.403 89.014 13.7252 88.8652 14.0214C88.73 14.277 88.5563 14.5117 88.3497 14.7177C88.1505 14.9199 87.9325 15.1039 87.6985 15.2675L87.035 15.7337C86.8366 15.8726 86.6517 16.0286 86.4825 16.1999C86.3298 16.3513 86.223 16.5405 86.1739 16.7468C86.1484 16.8426 86.0973 16.9301 86.0258 17.0008C85.992 17.035 85.9504 17.061 85.9042 17.0766C85.8581 17.0922 85.8088 17.0969 85.7604 17.0904L84.6771 17.0098C84.5727 17.0028 84.4752 16.9567 84.4055 16.8813C84.3689 16.8465 84.3418 16.8034 84.3267 16.7559C84.3116 16.7084 84.309 16.658 84.3191 16.6093C84.356 16.2825 84.461 15.9663 84.6277 15.6799C84.7797 15.4256 84.9666 15.1924 85.1832 14.9866C85.3917 14.7875 85.6179 14.6065 85.8591 14.4457C86.0937 14.2873 86.3159 14.1469 86.5165 13.9855C86.7027 13.8546 86.8734 13.7043 87.0257 13.5373C87.1571 13.3931 87.2372 13.2119 87.2541 13.0203C87.2694 12.8515 87.2419 12.6817 87.1742 12.5255C87.1064 12.3692 87.0004 12.2314 86.8652 12.1238C86.5305 11.8565 86.1138 11.7041 85.6801 11.6904C84.8715 11.6307 84.245 11.9893 83.8036 12.7334C83.7612 12.8147 83.7049 12.8885 83.637 12.9515C83.5569 13.0025 83.4601 13.0227 83.3654 13.0083L82.2111 12.9217C82.1702 12.9199 82.1299 12.9103 82.0928 12.8934C82.0557 12.8765 82.0225 12.8526 81.9951 12.823C81.9673 12.7921 81.9464 12.756 81.9337 12.7169C81.9209 12.6779 81.9166 12.6367 81.921 12.5959C81.9653 12.2488 82.0967 11.9174 82.3037 11.6307C82.5357 11.2992 82.8261 11.0099 83.1617 10.776C83.5284 10.5156 83.9358 10.3138 84.3684 10.1783C84.8356 10.0396 85.3263 9.99089 85.8128 10.0349V10.0379Z" fill="#64B08C"/>
<g opacity="0.3">
<path d="M85.7665 17.9242C85.8172 17.9277 85.8666 17.9412 85.9117 17.9638C85.9568 17.9864 85.9967 18.0177 86.0289 18.0557C86.0629 18.0923 86.0887 18.1354 86.1047 18.1822C86.1206 18.2291 86.1263 18.2786 86.1214 18.3276L86.0258 19.5409C86.0233 19.5902 86.0099 19.6384 85.9865 19.6822C85.963 19.7261 85.9301 19.7645 85.89 19.7949C85.8526 19.8279 85.8088 19.8531 85.761 19.8691C85.7132 19.885 85.6626 19.8913 85.6122 19.8876L84.3777 19.7949C84.2758 19.7873 84.1813 19.7408 84.1147 19.6658C84.0482 19.5907 84.0151 19.4931 84.0228 19.3945L84.1184 18.1782C84.1221 18.1292 84.136 18.0813 84.1593 18.0377C84.1827 17.994 84.215 17.9554 84.2542 17.9242C84.2917 17.8916 84.3357 17.8668 84.3835 17.8514C84.4313 17.836 84.4818 17.8303 84.532 17.8345L85.7665 17.9242ZM85.8128 10.0379C86.2543 10.0686 86.6889 10.1612 87.1029 10.3128C87.5001 10.4535 87.8681 10.662 88.1893 10.9284C88.4965 11.1841 88.7428 11.5011 88.9115 11.8578C89.089 12.2387 89.1603 12.6581 89.1182 13.0741C89.1001 13.403 89.014 13.7252 88.8652 14.0214C88.73 14.277 88.5563 14.5117 88.3497 14.7177C88.1505 14.9199 87.9325 15.1039 87.6985 15.2675L87.035 15.7337C86.8366 15.8726 86.6517 16.0286 86.4825 16.1999C86.3298 16.3513 86.223 16.5405 86.1739 16.7468C86.1484 16.8426 86.0973 16.9301 86.0258 17.0008C85.992 17.035 85.9504 17.061 85.9042 17.0766C85.8581 17.0922 85.8088 17.0969 85.7604 17.0904L84.6771 17.0098C84.5727 17.0028 84.4752 16.9567 84.4055 16.8813C84.3689 16.8465 84.3418 16.8034 84.3267 16.7559C84.3116 16.7084 84.309 16.658 84.3191 16.6093C84.356 16.2825 84.461 15.9663 84.6277 15.6799C84.7797 15.4256 84.9666 15.1924 85.1832 14.9866C85.3917 14.7875 85.6179 14.6065 85.8591 14.4457C86.0937 14.2873 86.3159 14.1469 86.5165 13.9855C86.7027 13.8546 86.8734 13.7043 87.0257 13.5373C87.1571 13.3931 87.2372 13.2119 87.2541 13.0203C87.2694 12.8515 87.2419 12.6817 87.1742 12.5255C87.1064 12.3692 87.0004 12.2314 86.8652 12.1238C86.5305 11.8565 86.1138 11.7041 85.6801 11.6904C84.8715 11.6307 84.245 11.9893 83.8036 12.7334C83.7612 12.8147 83.7049 12.8885 83.637 12.9515C83.5569 13.0025 83.4601 13.0227 83.3654 13.0083L82.2111 12.9217C82.1702 12.9199 82.1299 12.9103 82.0928 12.8934C82.0557 12.8765 82.0225 12.8526 81.9951 12.823C81.9673 12.7921 81.9464 12.756 81.9337 12.7169C81.9209 12.6779 81.9166 12.6367 81.921 12.5959C81.9653 12.2488 82.0967 11.9174 82.3037 11.6307C82.5357 11.2992 82.8261 11.0099 83.1617 10.776C83.5284 10.5156 83.9358 10.3138 84.3684 10.1783C84.8356 10.0396 85.3263 9.99089 85.8128 10.0349V10.0379Z" fill="white"/>
</g>
<path d="M87.5319 71.9003C87.7067 72.9119 87.5587 73.951 87.1076 74.879C86.6565 75.8071 85.9238 76.5798 85.0073 77.0941L55.4345 92.0359L55.3481 93.6885L53.9839 94.4266L55.7215 95.3949L88.4362 77.0612L87.5319 71.9003Z" fill="#64B08C"/>
<path d="M57.2214 32.1638L49.66 36.3894L81.9056 56.1306C82.9253 56.7561 83.7975 57.5826 84.4654 58.5563C85.1333 59.53 85.5819 60.6289 85.7819 61.7816L90.4793 91.2231C90.4933 91.3041 90.5273 91.3806 90.5786 91.4461C90.6298 91.5116 90.6967 91.5641 90.7734 91.599C90.8502 91.634 90.9346 91.6504 91.0194 91.6469C91.1041 91.6433 91.1867 91.6199 91.2601 91.5787C91.436 91.4831 91.5379 91.2799 91.4761 90.5776L88.7911 59.2923C88.6398 57.5262 87.4763 55.4074 85.6184 53.9909L57.2214 32.1638Z" fill="#64B08C"/>
<path opacity="0.1" d="M57.2214 32.1638L49.66 36.3894L81.9056 56.1306C82.9253 56.7561 83.7975 57.5826 84.4654 58.5563C85.1333 59.53 85.5819 60.6289 85.7819 61.7816L90.4793 91.2231C90.4933 91.3041 90.5273 91.3806 90.5786 91.4461C90.6298 91.5116 90.6967 91.5641 90.7734 91.599C90.8502 91.634 90.9346 91.6504 91.0194 91.6469C91.1041 91.6433 91.1867 91.6199 91.2601 91.5787C91.436 91.4831 91.5379 91.2799 91.4761 90.5776L88.7911 59.2923C88.6398 57.5262 87.4763 55.4074 85.6184 53.9909L57.2214 32.1638Z" fill="black"/>
<path d="M87.8405 73.6843C88.0107 74.6737 87.8656 75.6898 87.4245 76.5974C86.9834 77.5049 86.2673 78.2609 85.3715 78.7646L57.7646 94.2115L59.2368 97.161L85.9023 82.252C86.2537 82.0571 86.6485 81.9476 87.0532 81.9328C87.4578 81.918 87.8601 81.9983 88.2256 82.1669C88.5911 82.3355 88.909 82.5874 89.1521 82.9009C89.3952 83.2145 89.5562 83.5804 89.6213 83.9673L87.8405 73.6843Z" fill="#64B08C"/>
<path opacity="0.1" d="M87.8405 73.6843C88.0107 74.6737 87.8656 75.6898 87.4245 76.5974C86.9834 77.5049 86.2673 78.2609 85.3715 78.7646L57.7646 94.2115L59.2368 97.161L85.9023 82.252C86.2537 82.0571 86.6485 81.9476 87.0532 81.9328C87.4578 81.918 87.8601 81.9983 88.2256 82.1669C88.5911 82.3355 88.909 82.5874 89.1521 82.9009C89.3952 83.2145 89.5562 83.5804 89.6213 83.9673L87.8405 73.6843Z" fill="black"/>
<path d="M53.5117 94.2264L53.1382 92.0748L25.2567 76.4964L28.6516 74.6047L26.9603 73.6604L25.695 74.3687C25.2339 74.6309 24.6988 74.7448 24.1666 74.6939C23.6345 74.6431 23.1327 74.4301 22.7334 74.0857C22.3342 73.7413 22.058 73.2831 21.9446 72.7771C21.8313 72.2711 21.8865 71.7434 22.1025 71.2697L22.2198 71.0067L22.0346 71.4191L19.51 77.0522L21.7044 78.4717L23.5562 77.4347L53.5117 94.2264Z" fill="#64B08C"/>
<path d="M53.8728 92.4842L25.3678 76.5352C24.8422 76.2039 24.405 75.757 24.0917 75.2309C23.7785 74.7048 23.5982 74.1145 23.5654 73.508V71.8823C23.5986 71.2768 23.7792 70.6875 24.0924 70.1624C24.4057 69.6374 24.8427 69.1915 25.3678 68.8611L53.8728 52.9241C54.4309 52.65 55.0479 52.5072 55.6736 52.5072C56.2994 52.5072 56.9164 52.65 57.4745 52.9241L85.9887 68.8671C86.5129 69.1981 86.9491 69.6443 87.2617 70.1692C87.5744 70.6942 87.7547 71.2832 87.788 71.8883V73.5349C87.7542 74.1399 87.5737 74.7287 87.2611 75.2536C86.9485 75.7785 86.5126 76.2248 85.9887 76.5562L57.4807 92.4842C56.9218 92.7593 56.3037 92.9026 55.6767 92.9026C55.0498 92.9026 54.4317 92.7593 53.8728 92.4842Z" fill="#455A64"/>
<path d="M54.4005 92.7053C54.2174 92.6477 54.0406 92.5727 53.8728 92.4812L25.3678 76.5352C24.8431 76.2032 24.4067 75.7561 24.0941 75.2301C23.7815 74.7041 23.6014 74.1141 23.5685 73.508V71.8793C23.6006 71.3424 23.7468 70.8176 23.998 70.3378C24.2492 69.8581 24.6 69.4337 25.0283 69.0912C24.3895 69.647 24.5037 70.3881 25.3678 70.8842L53.737 86.7465L54.4005 92.7053Z" fill="#263238"/>
<path d="M87.7819 71.8853V73.5349C87.7497 74.1396 87.5705 74.7284 87.2589 75.2534C86.9473 75.7784 86.5121 76.2248 85.9887 76.5561L57.4838 92.4842C57.0099 92.7166 56.493 92.8555 55.9632 92.893C55.4334 92.9304 54.9012 92.8656 54.3975 92.7023L53.7339 86.7256L53.8697 86.8003C54.4274 87.0758 55.0445 87.2194 55.6706 87.2194C56.2966 87.2194 56.9137 87.0758 57.4714 86.8003L85.9887 70.8782C86.8591 70.3971 86.9702 69.65 86.3282 69.0852C86.7573 69.4292 87.1081 69.8557 87.3583 70.3376C87.6085 70.8196 87.7527 71.3466 87.7819 71.8853Z" fill="#37474F"/>
<path d="M64.0143 58.596L35.5063 74.533C34.8588 74.8653 34.1246 75.0056 33.3953 74.9364C33.2872 74.9364 33.1823 74.9185 33.0866 74.9036H33.0218L32.8336 74.8707H32.8089C32.7138 74.8524 32.62 74.8285 32.528 74.799C32.3122 74.7406 32.1049 74.6563 31.9108 74.548L30.4355 73.7142C29.346 73.0234 28.5725 71.9535 28.2751 70.7258L23.9543 47.2969C23.9295 47.1528 23.9171 47.0068 23.9173 46.8606C23.9173 46.8039 23.9173 46.7471 23.9173 46.6903C23.9418 46.3969 24.0083 46.1083 24.1148 45.8326C24.3045 45.3239 24.6279 44.8717 25.053 44.5207L25.1765 44.4311C25.2379 44.3878 25.3018 44.3479 25.3678 44.3116L53.8728 28.3745C54.4316 28.1028 55.0483 27.9612 55.6736 27.9612C56.299 27.9612 56.9157 28.1028 57.4745 28.3745L58.9405 29.1963C59.261 29.3832 59.5529 29.6125 59.8077 29.8777L59.9528 30.0331C60.1467 30.248 60.3222 30.4778 60.4775 30.7204C60.5143 30.7704 60.5483 30.8223 60.5793 30.8758L60.6595 31.0163L60.7706 31.2225C60.8046 31.2912 60.8386 31.3599 60.8663 31.4287C60.8941 31.4974 60.9157 31.5452 60.9373 31.602C60.9513 31.6288 60.9626 31.6568 60.9713 31.6857C60.9898 31.7365 61.0052 31.7873 61.0206 31.8381C61.0361 31.8889 61.0608 31.9725 61.0762 32.0383C61.0901 32.0865 61.1014 32.1354 61.1101 32.1847L65.4464 55.6196C65.5241 56.1961 65.4306 56.7822 65.177 57.3093C64.9235 57.8363 64.5202 58.2826 64.0143 58.596Z" fill="#455A64"/>
<path d="M29.0035 50.1269L33.3243 73.5588C33.5249 74.6526 34.4971 75.0918 35.4847 74.533L63.9897 58.599C64.4976 58.2846 64.9024 57.8365 65.1566 57.3071C65.4108 56.7778 65.5039 56.1893 65.4248 55.6106L61.0886 32.1817C60.888 31.085 59.9158 30.6487 58.9282 31.2045L30.4355 47.1386C29.9279 47.4531 29.5235 47.9014 29.2698 48.4307C29.0161 48.9601 28.9237 49.5485 29.0035 50.1269Z" fill="#37474F"/>
<path d="M34.7718 74.8169C34.3224 74.9275 33.8577 74.9678 33.3953 74.9364C33.2872 74.9364 33.1823 74.9185 33.0866 74.9036C32.991 74.8886 32.92 74.8797 32.8336 74.8617H32.8089C32.7138 74.8434 32.62 74.8195 32.528 74.79C32.3122 74.7316 32.1049 74.6473 31.9108 74.539L30.4355 73.7142C29.346 73.0234 28.5725 71.9535 28.2751 70.7258L23.9543 47.2969C23.9295 47.1528 23.9171 47.0068 23.9173 46.8606C23.9173 46.8039 23.9173 46.7471 23.9173 46.6903C23.9418 46.3969 24.0083 46.1083 24.1148 45.8326L29.201 48.6298C28.9993 49.1021 28.9362 49.6192 29.0189 50.124L33.3397 73.5558C33.4879 74.3716 34.065 74.8259 34.7656 74.7691C34.7657 74.7852 34.7677 74.8013 34.7718 74.8169Z" fill="#263238"/>
<path d="M78.7792 89.3016C78.7792 89.3016 75.5108 96.0971 75.2268 98.8255C74.9182 101.667 74.1713 102.576 74.5139 105.699C74.5911 106.38 74.8874 107.749 74.9522 108.302C75.0108 108.795 74.8009 109.177 74.1466 109.276C72.8566 109.473 70.8505 107.053 69.9678 104.477C69.0851 101.901 67.9401 96.136 67.8846 95.4487C67.8701 94.7589 68.0436 94.0776 68.3876 93.4733C68.5668 93.1186 68.7807 92.7814 69.0265 92.4663C69.511 91.247 69.832 88.8981 70.261 87.2844L78.7792 89.3016Z" fill="#F28F8F"/>
<path d="M69.0141 92.4663C68.9216 92.4663 68.7549 92.4274 68.4987 92.6994C68.4 92.801 67.7673 94.1248 67.2642 94.8122C66.7612 95.4995 65.4618 96.7845 65.2458 97.929C65.863 100.188 67.9309 101.835 68.15 103.951C68.3691 106.066 68.2827 108.508 71.4894 111.233C74.696 113.959 78.1094 114.389 79.3748 113.764C80.6402 113.14 80.5939 111.858 78.9983 109.345C77.3039 106.676 76.3533 101.019 76.3533 101.016C76.1743 100.03 76.4552 98.3952 75.483 97.7467C74.9965 97.4739 74.4538 97.3086 73.8936 97.2626C73.2763 97.167 72.5696 97.0833 72.0418 97.4091C71.5898 97.7336 71.2864 98.216 71.1962 98.7538C71.111 99.287 70.9893 99.8141 70.832 100.332C70.7672 100.493 70.6591 100.669 70.4801 100.687C70.2147 100.711 70.0882 100.388 70.0511 100.125C69.8454 98.7688 69.6458 97.411 69.4524 96.0523C69.3536 95.3919 69.2549 94.7285 69.1592 94.068C69.082 93.557 68.8722 92.9653 69.0141 92.4663Z" fill="#37474F"/>
<path d="M62.2243 58.0013C65.8198 60.1888 78.2113 66.0161 83.3623 70.0116C84.8499 71.1651 85.569 72.9791 84.8746 76.4545C83.9117 81.2688 80.2451 91.5727 80.2451 91.5727C79.8637 92.4921 79.5622 93.4407 79.3439 94.4087L60.3725 75.564L62.2243 58.0013Z" fill="#64B08C"/>
<path opacity="0.4" d="M62.2243 58.0013C65.8198 60.1888 78.2113 66.0161 83.3623 70.0116C84.8499 71.1651 85.569 72.9791 84.8746 76.4545C83.9117 81.2688 80.2451 91.5727 80.2451 91.5727C79.8637 92.4921 79.5622 93.4407 79.3439 94.4087L60.3725 75.564L62.2243 58.0013Z" fill="white"/>
<path opacity="0.3" d="M78.7792 80.2378C78.2637 78.3581 76.9644 77.3481 75.8101 76.586C71.2085 73.5498 64.6995 69.145 63.5329 68.2903C64.036 67.0949 64.8723 64.9881 63.9557 62.9411C63.9557 62.9411 63.61 67.4237 61.0608 69.2705L61.033 69.3153C61.6811 70.161 74.4985 86.9049 80.0507 92.027C80.1124 91.8686 80.1772 91.7281 80.2421 91.5847C80.2421 91.5847 80.4828 90.9063 80.8593 89.8215C80.3655 87.0214 79.5538 83.0708 78.7792 80.2378Z" fill="black"/>
<path d="M62.4342 57.4813L37.1883 63.1593C37.9136 67.1368 38.2716 68.8372 39.679 71.0127C41.0863 73.1882 43.472 75.4953 51.6322 79.2009C57.78 81.989 65.397 85.0402 66.934 85.6199C68.0913 86.0592 68.3753 88.2198 69.1623 90.9751C70.0419 94.0561 71.5264 96.2167 72.8658 98.7598C74.8225 102.471 76.2885 105.528 76.2885 105.528C76.2885 105.528 81.6432 105.552 84.4795 102.764C79.1125 83.7611 78.7144 82.3954 78.5662 81.9292C77.9212 79.8762 77.8965 79.3174 75.0509 77.2106C72.6097 75.4026 61.8046 68.6011 61.8046 68.6011C61.8046 68.6011 65.4834 63.0188 62.4342 57.4813Z" fill="#64B08C"/>
<path opacity="0.4" d="M62.4342 57.4813L37.1883 63.1593C37.9136 67.1368 38.2716 68.8372 39.679 71.0127C41.0863 73.1882 43.472 75.4953 51.6322 79.2009C57.78 81.989 65.397 85.0402 66.934 85.6199C68.0913 86.0592 68.3753 88.2198 69.1623 90.9751C70.0419 94.0561 71.5264 96.2167 72.8658 98.7598C74.8225 102.471 76.2885 105.528 76.2885 105.528C76.2885 105.528 81.6432 105.552 84.4795 102.764C79.1125 83.7611 78.7144 82.3954 78.5662 81.9292C77.9212 79.8762 77.8965 79.3174 75.0509 77.2106C72.6097 75.4026 61.8046 68.6011 61.8046 68.6011C61.8046 68.6011 65.4834 63.0188 62.4342 57.4813Z" fill="white"/>
<path d="M57.1844 32.0413C61.8138 32.0742 63.9557 34.8265 65.3415 38.7711C66.7272 42.7158 67.4556 44.6971 68.5574 47.7811C69.724 51.0444 63.4681 55.0428 61.786 54.1254L58.3356 45.5099C58.0208 42.5783 57.1844 32.0413 57.1844 32.0413Z" fill="#FFA8A7"/>
<path d="M56.9529 30.9475C59.5053 31.0671 61.5083 31.8799 62.4403 32.7107C63.3724 33.5414 64.0298 33.7925 66.0729 39.7842C67.5481 44.1083 67.7981 45.1005 67.7981 45.1005C67.7981 45.1005 64.6532 48.9465 58.5886 48.4833L57.5455 46.0926L56.9529 30.9475Z" fill="#263238"/>
<path d="M48.1385 30.3529L42.1634 32.1638C42.1634 32.1638 37.1235 35.72 36.6081 39.6975C36.0927 43.675 35.9291 45.7878 36.497 55.521C36.8056 60.8642 38.5987 68.5802 38.5987 68.5802C38.5987 68.5802 44.3794 70.2298 53.6876 66.9874C64.5452 63.2071 64.5452 59.1877 64.5452 59.1877C63.1869 58.0456 62.3366 56.4397 62.1718 54.7051C62.0299 52.9749 61.9959 50.5513 62.2119 45.1095C62.5206 37.2769 62.0484 32.6001 57.5177 31.2613C57.5331 31.2643 51.0674 29.9494 48.1385 30.3529Z" fill="#64B08C"/>
<path opacity="0.3" d="M48.1385 30.3529L42.1634 32.1638C42.1634 32.1638 37.1235 35.72 36.6081 39.6975C36.0927 43.675 35.9291 45.7878 36.497 55.521C36.8056 60.8642 38.5987 68.5802 38.5987 68.5802C38.5987 68.5802 44.3794 70.2298 53.6876 66.9874C64.5452 63.2071 64.5452 59.1877 64.5452 59.1877C63.1869 58.0456 62.3366 56.4397 62.1718 54.7051C62.0299 52.9749 61.9959 50.5513 62.2119 45.1095C62.5206 37.2769 62.0484 32.6001 57.5177 31.2613C57.5331 31.2643 51.0674 29.9494 48.1385 30.3529Z" fill="black"/>
<path d="M56.5393 9.36549C50.4161 8.14922 45.2559 12.055 44.1942 15.6769C42.5368 21.2652 48.0212 25.5804 48.8884 28.7003L63.8045 17.3833C64.0205 15.0942 62.6625 10.5818 56.5393 9.36549Z" fill="#263238"/>
<path d="M52.521 17.2279C50.5705 16.8185 50.1075 17.6762 49.9933 18.8954C49.8791 20.1147 49.9717 20.5689 49.6847 21.833C49.635 22.1071 49.5302 22.3691 49.3761 22.604C49.2991 22.7216 49.196 22.821 49.0743 22.8949C48.9525 22.9689 48.8152 23.0155 48.6724 23.0313C48.2897 23.0582 48.1323 22.8311 48.015 22.5383C47.8638 22.1617 47.8453 21.5192 47.1879 20.9783C46.5305 20.4374 44.7867 19.8607 43.9751 21.6417C43.1356 23.4856 44.725 25.7448 46.046 26.3186C47.8082 27.0866 48.8236 25.3772 48.8236 25.3772L47.4379 32.0801C50.4563 36.7091 57.4004 35.5556 56.0208 33.6819L57.3171 30.6397C57.3171 30.6397 58.9004 30.8459 59.9312 30.5919C61.1009 30.3738 63.1008 29.806 63.7397 25.9062C63.9773 24.4508 64.0143 20.4225 63.8569 18.1812C63.7242 16.2806 63.3662 15.6232 63.2829 15.3662C62.4712 14.7057 59.888 14.7296 58.6534 15.8802C56.7153 14.637 53.987 14.7386 52.521 17.2279Z" fill="#FFA8A7"/>
<path d="M58.8294 26.7279C58.5634 26.4581 58.217 26.2753 57.8387 26.205C57.6677 26.1671 57.4925 26.15 57.3171 26.1542C57.131 26.1462 56.9466 26.1909 56.7862 26.2827C56.7627 26.3028 56.7451 26.3286 56.7353 26.3575C56.7256 26.3864 56.724 26.4173 56.7307 26.447C56.7307 26.4949 56.7739 26.5845 56.8356 26.5875C56.9245 26.5866 57.0132 26.5796 57.101 26.5666C57.1967 26.5666 57.2893 26.5666 57.385 26.5666C57.5398 26.5656 57.6942 26.5826 57.8448 26.6174C57.9947 26.6511 58.1398 26.7023 58.2769 26.7698C58.4202 26.8525 58.5583 26.9433 58.6905 27.0417C58.7047 27.0541 58.7218 27.0629 58.7404 27.0674C58.7589 27.0719 58.7783 27.0719 58.7969 27.0675C58.8154 27.0631 58.8326 27.0544 58.8468 27.042C58.8611 27.0297 58.8721 27.0142 58.8787 26.9969C58.8975 26.9521 58.9027 26.9031 58.894 26.8555C58.8853 26.808 58.8629 26.7638 58.8294 26.7279Z" fill="#B16668"/>
<path d="M57.3171 30.6397C55.1875 30.4694 54.0456 30.1257 53.1228 29.7612C51.4223 29.0888 50.7217 28.9154 49.2619 25.3951C49.2619 25.3951 49.4224 28.509 51.4223 30.0988C52.9994 31.3719 56.885 31.6707 56.885 31.6707L57.3171 30.6397Z" fill="#F28F8F"/>
<path d="M63.2242 16.4778C62.4372 14.3501 60.0361 12.7394 58.6473 15.8801C56.7245 13.2205 53.4006 13.5911 52.6815 16.9709C52.2619 18.8706 52.3383 20.8417 52.9037 22.7056C52.9037 22.7056 50.7433 21.6866 50.6599 18.7699C50.6599 18.7699 50.3266 20.8857 50.589 21.7254C50.589 21.7254 45.2682 21.2353 43.7436 19.6694C43.7436 19.6694 42.4504 13.8421 46.5058 12.3569C46.8144 9.85558 50.7402 6.67894 57.456 8.27772C64.1717 9.8765 65.1717 13.3221 65.1717 13.3221C64.5245 12.8928 63.8194 12.5519 63.0761 12.309C64.3493 13.5004 65.1194 15.1078 65.2365 16.8185C65.4587 19.7112 63.9619 21.1965 63.9619 21.1965C63.9619 21.1965 63.8569 18.1812 63.2242 16.4778Z" fill="#37474F"/>
<path d="M46.3762 12.7633L44.2528 11.2243C44.4748 10.951 44.7974 10.7716 45.153 10.7237C45.5086 10.6758 45.8696 10.7631 46.1602 10.9673C46.2992 11.0692 46.4156 11.1974 46.5022 11.3441C46.5888 11.4907 46.6438 11.6528 46.664 11.8206C46.6842 11.9884 46.6691 12.1584 46.6196 12.3204C46.5702 12.4824 46.4874 12.6331 46.3762 12.7633Z" fill="#37474F"/>
<path d="M46.6663 12.6109L44.1818 13.5074C44.0656 13.1789 44.0849 12.8196 44.2355 12.5045C44.3862 12.1894 44.6566 11.9427 44.9905 11.816C45.1542 11.758 45.3283 11.7327 45.5024 11.7415C45.6764 11.7504 45.8469 11.7932 46.0034 11.8675C46.1599 11.9417 46.2993 12.0459 46.4133 12.1736C46.5272 12.3014 46.6133 12.4501 46.6663 12.6109Z" fill="#37474F"/>
<path d="M57.5948 13.8361C57.6192 13.8365 57.6431 13.8292 57.6627 13.8152C57.6836 13.7983 57.6969 13.7742 57.6998 13.748C57.7027 13.7218 57.6949 13.6955 57.6782 13.6747C55.3974 10.9105 49.3112 10.6475 46.9348 12.055C46.9232 12.0619 46.9132 12.0709 46.9052 12.0815C46.8973 12.0921 46.8916 12.1042 46.8884 12.117C46.8853 12.1297 46.8847 12.143 46.8869 12.1559C46.889 12.1689 46.8938 12.1813 46.9009 12.1925C46.9079 12.2037 46.9172 12.2134 46.9282 12.2211C46.9392 12.2288 46.9516 12.2343 46.9648 12.2374C46.978 12.2405 46.9917 12.241 47.005 12.2389C47.0184 12.2368 47.0313 12.2322 47.0428 12.2254C49.3051 10.8866 55.3357 11.1585 57.5146 13.8002C57.5246 13.8114 57.5369 13.8203 57.5508 13.8265C57.5646 13.8327 57.5796 13.8359 57.5948 13.8361Z" fill="#263238"/>
<path d="M56.7585 21.5103C56.7601 21.665 56.7147 21.8167 56.6279 21.9467C56.5412 22.0766 56.4168 22.1789 56.2705 22.241C56.1241 22.303 55.9621 22.322 55.8047 22.2956C55.6472 22.2692 55.5013 22.1986 55.385 22.0925C55.2687 21.9864 55.1872 21.8495 55.1506 21.6989C55.114 21.5483 55.124 21.3906 55.1792 21.2454C55.2345 21.1002 55.3326 20.974 55.4614 20.8824C55.5902 20.7908 55.744 20.7379 55.9036 20.7303C56.0127 20.7267 56.1215 20.7441 56.2237 20.7814C56.3258 20.8187 56.4193 20.8753 56.4988 20.9478C56.5783 21.0203 56.6422 21.1074 56.6867 21.2039C56.7313 21.3004 56.7557 21.4046 56.7585 21.5103Z" fill="#263238"/>
<path d="M62.6502 21.0829C62.6577 21.1852 62.6443 21.288 62.6106 21.3852C62.5769 21.4825 62.5237 21.5723 62.454 21.6496C62.3842 21.7268 62.2994 21.7899 62.2044 21.8352C62.1093 21.8806 62.006 21.9072 61.9002 21.9137C61.7926 21.9239 61.684 21.9118 61.5816 21.8782C61.4793 21.8445 61.3855 21.7901 61.3066 21.7185C61.2277 21.6469 61.1655 21.5599 61.1242 21.4631C61.0828 21.3664 61.0633 21.2622 61.0669 21.1576C61.0576 21.0546 61.0698 20.9509 61.1028 20.8526C61.1359 20.7543 61.1891 20.6635 61.2593 20.5855C61.3294 20.5076 61.4151 20.4442 61.5112 20.3992C61.6073 20.3541 61.7118 20.3283 61.8184 20.3232C61.9251 20.3182 62.0317 20.3341 62.1318 20.3699C62.232 20.4057 62.3236 20.4607 62.4013 20.5317C62.479 20.6026 62.541 20.688 62.5838 20.7827C62.6266 20.8774 62.6492 20.9795 62.6502 21.0829Z" fill="#263238"/>
<path d="M58.6257 19.8457L58.9868 25.2099L61.8663 24.0324L58.6257 19.8457Z" fill="#F28F8F"/>
<path d="M53.987 19.4722L55.5795 18.0527C55.7726 18.2661 55.8731 18.5436 55.8598 18.8271C55.8466 19.1105 55.7207 19.3781 55.5085 19.5738C55.4031 19.6667 55.2794 19.738 55.1448 19.7833C55.0102 19.8286 54.8675 19.8471 54.7253 19.8376C54.5832 19.8281 54.4444 19.7909 54.3175 19.7281C54.1906 19.6652 54.0782 19.5782 53.987 19.4722Z" fill="#263238"/>
<path d="M61.4465 17.7598L63.1656 19.0598C63.0837 19.1723 62.9791 19.2675 62.858 19.3395C62.7369 19.4116 62.6019 19.459 62.4612 19.4788C62.3206 19.4987 62.1772 19.4906 62.0399 19.455C61.9026 19.4194 61.7742 19.3571 61.6626 19.2719C61.4334 19.0947 61.2832 18.839 61.243 18.5576C61.2028 18.2763 61.2756 17.9907 61.4465 17.7598Z" fill="#263238"/>
<path d="M47.7187 24.9798C48.4564 24.8124 49.0242 25.4609 49.0242 25.4609C49.0242 25.4609 49.6014 25.0993 49.9501 25.4609C50.176 25.6908 50.3328 25.9759 50.4038 26.2857C50.4038 26.2857 51.0026 25.8793 51.4099 26.3425C51.6605 26.6342 51.8436 26.9746 51.947 27.3406C51.947 27.3406 52.4809 27.1433 52.9407 27.8187C53.271 28.3058 53.8882 29.0649 54.6752 29.3846C55.382 29.6835 55.0394 30.1048 54.2648 30.3021C53.4901 30.4993 47.3978 25.3204 47.3978 25.3204L47.7187 24.9798Z" fill="#F28F8F"/>
<path d="M41.0246 52.1321C41.3085 52.4011 47.1817 49.4904 47.6076 45.9193C46.0491 45.5637 40.7406 49.1019 41.0246 52.1321Z" fill="#263238"/>
<path d="M42.1079 32.5194C37.5494 34.1541 36.4353 37.7102 36.8612 41.368C37.1883 44.0874 38.9228 46.9593 42.4875 52.6013C46.0521 58.2434 49.0057 56.3936 49.0057 56.3936L49.981 52.2098L44.8547 39.8738C44.8547 39.8738 44.5892 34.4589 42.1079 32.5194Z" fill="#FFA8A7"/>
<path d="M47.1015 45.241L46.3515 43.4121C46.3515 43.4121 43.6356 48.3608 44.9164 51.5853L47.1015 45.241Z" fill="#F28F8F"/>
<path d="M42.1634 32.1638C38.4599 33.4309 37.1112 34.9012 36.5402 38.0509C36.1544 40.1816 36.4476 41.7117 37.429 44.6582C38.4444 47.7183 41.0925 52.1292 41.0925 52.1292C41.1295 50.3541 44.6386 46.3317 47.6724 45.9163C47.6724 45.9163 45.9287 40.7972 45.4071 39.4017C44.8855 38.0061 43.7559 33.8194 42.1634 32.1638Z" fill="#263238"/>
<path d="M54.0302 35.6214C54.5394 34.2527 54.9561 33.0753 54.7802 32.3341C54.5487 31.333 54.0456 31.1567 54.0456 31.1567C54.2409 31.1268 54.4285 31.0609 54.5981 30.9625C54.6861 30.912 54.7602 30.8415 54.8139 30.7572C54.8677 30.6729 54.8995 30.5772 54.9067 30.4784C54.9283 30.2154 54.3573 30.051 54.129 29.9016C53.3759 29.4085 53.1228 29.0559 52.5858 28.3835C52.5114 28.2756 52.4149 28.1837 52.3024 28.1132C52.1899 28.0428 52.0637 27.9955 51.9315 27.9741C51.7649 27.481 51.5859 27.0328 51.2402 26.8684C51.1217 26.8111 50.9924 26.7781 50.8601 26.7714C50.7279 26.7647 50.5957 26.7845 50.4717 26.8296C50.3681 26.4924 50.1424 26.2027 49.8359 26.0137C49.581 25.9169 49.2977 25.9169 49.0427 26.0137C48.8742 25.7869 48.6807 25.5785 48.4656 25.3921C48.2584 25.2621 48.0148 25.197 47.768 25.2055C47.5213 25.2141 47.2832 25.2959 47.086 25.44C46.5521 25.7956 46.3638 26.3365 46.1139 26.8833C45.8941 27.3659 45.7175 27.8658 45.5861 28.3775C45.4536 28.8543 45.3505 29.3383 45.2775 29.8269C45.2238 30.1077 45.2354 30.3966 45.3114 30.6726C45.5398 31.2703 48.8576 34.6262 48.8576 34.6262C48.5705 36.5956 46.2805 45.1124 45.296 48.0291C44.3701 50.8083 45.2343 55.3596 46.5953 56.0977C47.9564 56.8358 49.7403 56.9643 51.984 53.7578C54.4654 50.1987 52.771 39.0042 54.0302 35.6214Z" fill="#FFA8A7"/>
<path d="M49.018 56.3936C49.8791 56.0947 50.839 55.3566 51.9068 53.8564C51.4161 53.7518 50.9161 53.6741 50.4285 53.6174C49.5952 53.5158 48.8853 53.1572 48.0798 52.9241C48.0619 52.9126 48.0413 52.9058 48.0199 52.9044C47.9985 52.903 47.977 52.907 47.9577 52.916C47.9384 52.9251 47.9219 52.9388 47.9097 52.956C47.8976 52.9731 47.8902 52.993 47.8885 53.0137C47.8291 53.2023 47.8141 53.4014 47.8445 53.5963C47.8749 53.7913 47.9501 53.9772 48.0644 54.1403C48.2621 54.3868 48.5035 54.5972 48.7773 54.7619C48.8637 54.8187 49.0119 54.8785 49.3267 55.0608C49.4594 55.1385 49.5643 55.2311 49.5396 55.3417C49.4656 55.6853 48.2835 55.6823 48.0644 55.6823C47.3422 55.6726 46.6259 55.5546 45.941 55.3327C45.7741 55.2866 45.6135 55.2214 45.4626 55.1385C45.3169 55.0481 45.185 54.9385 45.0707 54.8127C44.9097 54.6538 44.7583 54.4862 44.617 54.3107C44.2939 53.845 43.9227 53.4125 43.509 53.0197C43.2226 52.777 42.8659 52.6257 42.4875 52.5864V52.6073C46.0583 58.2254 49.018 56.3936 49.018 56.3936Z" fill="#F28F8F"/>
<path d="M54.1135 31.088C53.7956 31.1439 53.4695 31.1388 53.1537 31.0731C52.9354 31.0498 52.7245 30.9825 52.5347 30.8754C52.3449 30.7683 52.1804 30.6239 52.0519 30.4515C52.0519 30.4515 52.0025 29.1665 51.8636 29.2711C51.7247 29.3757 51.7618 30.3738 51.7618 30.3738C51.5595 30.2688 51.3794 30.1279 51.2309 29.9584C50.9501 30.1287 51.3297 30.4276 51.7216 30.6666C51.9481 30.8282 52.1887 30.9702 52.4408 31.091C52.8432 31.2393 53.2694 31.3182 53.7 31.3241C53.834 31.3116 53.9692 31.3288 54.0954 31.3744C54.2216 31.4199 54.3354 31.4927 54.4283 31.5871C54.2894 31.3988 54.1135 31.088 54.1135 31.088Z" fill="#B16668"/>
<path d="M52.1476 28.0159C52.0982 28.0159 52.0488 28.0638 52.0025 28.0548C51.5704 27.9861 51.1044 28.1265 50.4841 28.512C49.9538 28.9003 49.4903 29.3672 49.1107 29.8956C49.1107 29.8956 49.2125 29.298 50.0365 28.5807C50.8606 27.8635 51.6877 27.732 52.1476 28.0159Z" fill="#B16668"/>
<path d="M50.4964 26.7459L50.4779 26.8953C48.9841 27.3794 48.231 28.3656 47.7002 29.1187C47.7002 29.1187 47.7434 28.4552 48.839 27.5438C49.3115 27.1443 49.8823 26.8695 50.4964 26.7459Z" fill="#B16668"/>
<path d="M48.8267 25.7597C48.5582 25.8285 48.1847 26.1542 47.7372 26.6383C47.2672 27.1412 46.8949 27.7224 46.6385 28.3536C46.9286 27.8994 47.9317 26.4381 49.1415 26.0436C49.0022 25.9926 48.8891 25.8907 48.8267 25.7597Z" fill="#B16668"/>
<path d="M47.7187 33.4309C48.5564 34.1831 49.6205 34.6564 50.7556 34.7816C50.1151 34.8728 49.4617 34.8259 48.8421 34.6442L47.7187 33.4309Z" fill="#B16668"/>
<path d="M53.4037 46.9593C53.4561 45.6115 53.4685 44.2697 53.4716 42.913C53.4747 41.5563 53.4716 40.2235 53.5179 38.8608C53.541 38.1849 53.5997 37.5107 53.6938 36.8406C53.7407 36.504 53.8139 36.1713 53.9129 35.8455C54.0086 35.5168 54.1413 35.206 54.2493 34.8862C54.4929 34.257 54.6637 33.6035 54.7585 32.9378C54.7892 32.6075 54.7396 32.2749 54.6135 31.9666C54.5198 31.6546 54.3126 31.386 54.0302 31.2105C54.0172 31.2041 54.0073 31.193 54.0026 31.1796C53.998 31.1661 53.999 31.1515 54.0055 31.1388C54.0137 31.1267 54.0256 31.1173 54.0394 31.1119C54.2477 31.0834 54.4457 31.0065 54.6166 30.8878C54.696 30.8273 54.7594 30.7495 54.8018 30.6607C54.8231 30.6209 54.8361 30.5774 54.8398 30.5328C54.8435 30.4881 54.8379 30.4432 54.8234 30.4007C54.6842 30.2543 54.5105 30.1425 54.3172 30.0749C54.1185 29.9772 53.9312 29.8589 53.7586 29.7223C53.4101 29.4591 53.0988 29.1526 52.8327 28.8108C52.6969 28.6495 52.5642 28.4732 52.4253 28.3208C52.2988 28.1666 52.1148 28.0668 51.913 28.0428C51.8999 28.0428 51.8872 28.0387 51.8766 28.0312C51.8661 28.0237 51.8583 28.0131 51.8543 28.001C51.764 27.6712 51.6101 27.3609 51.4007 27.0866C51.2862 26.9687 51.1359 26.8891 50.9717 26.8594C50.8054 26.8306 50.6342 26.844 50.4748 26.8983C50.4663 26.9011 50.4573 26.9022 50.4483 26.9016C50.4393 26.9011 50.4306 26.8987 50.4225 26.8949C50.4145 26.891 50.4073 26.8856 50.4015 26.879C50.3956 26.8724 50.3912 26.8647 50.3884 26.8565C50.303 26.5751 50.1307 26.3258 49.8946 26.1422C49.7688 26.0687 49.6269 26.0253 49.4804 26.0154C49.3339 26.0055 49.187 26.0295 49.052 26.0855C49.038 26.0897 49.0229 26.0901 49.0087 26.0863C48.9945 26.0826 48.9817 26.0751 48.9718 26.0645C48.7898 25.795 48.5561 25.5617 48.2835 25.3772C48.1381 25.3133 47.9803 25.2803 47.8206 25.2803C47.6609 25.2803 47.503 25.3133 47.3576 25.3772C47.049 25.5041 46.7874 25.7188 46.6077 25.9928C46.434 26.2744 46.2843 26.5692 46.1601 26.8744C45.8915 27.4779 45.6847 28.1055 45.5429 28.7481C45.4657 29.0679 45.3978 29.3936 45.3485 29.7193C45.3196 29.8803 45.3031 30.0431 45.2991 30.2064C45.2842 30.3627 45.302 30.5202 45.3515 30.6696C45.4518 30.8597 45.574 31.0381 45.7157 31.2016C45.8546 31.3719 45.9997 31.5422 46.1447 31.7066C46.4348 32.0413 46.7342 32.367 47.0367 32.6928C47.6416 33.3402 48.2588 33.9817 48.8884 34.6173C48.8915 34.6217 48.8931 34.6269 48.8931 34.6322C48.8931 34.6375 48.8915 34.6427 48.8884 34.6472C48.7897 35.2807 48.6415 35.9053 48.4934 36.5268C48.3452 37.1484 48.1848 37.77 48.0212 38.3886L47.0305 42.1032L47.9749 38.3796L48.4255 36.5119C48.5705 35.8903 48.7156 35.2657 48.8113 34.6352V34.6681C48.194 34.0345 47.5768 33.398 46.9595 32.7495C46.6509 32.4268 46.3422 32.0981 46.0614 31.7664C45.9132 31.599 45.7682 31.4317 45.6293 31.2583C45.4801 31.0879 45.3517 30.9014 45.2466 30.7025C45.1829 30.5397 45.1586 30.3648 45.1756 30.1915C45.1826 30.0244 45.1991 29.8578 45.225 29.6924C45.2744 29.3637 45.3392 29.038 45.4163 28.7122C45.5636 28.0624 45.7755 27.4279 46.049 26.8176C46.1766 26.5081 46.3282 26.2084 46.5027 25.9211C46.6876 25.627 46.9597 25.3938 47.2836 25.2517C47.4476 25.1787 47.6261 25.1409 47.8067 25.1409C47.9873 25.1409 48.1657 25.1787 48.3298 25.2517C48.4853 25.3373 48.6234 25.4497 48.7372 25.5834C48.8538 25.7068 48.963 25.8365 49.0643 25.9719L48.9872 25.951C49.1434 25.8921 49.3104 25.8646 49.4779 25.8703C49.6496 25.8734 49.8167 25.9242 49.9594 26.0167C50.0961 26.111 50.2108 26.2322 50.2958 26.3723C50.3841 26.5056 50.4546 26.6492 50.5056 26.7997L50.4192 26.7578C50.6018 26.6975 50.7972 26.6832 50.9871 26.716C51.1789 26.7523 51.3539 26.8465 51.4871 26.985C51.7083 27.2729 51.8697 27.5997 51.9624 27.9472L51.9037 27.9024C52.1392 27.9304 52.3547 28.0448 52.5056 28.2221C52.6568 28.3895 52.7802 28.5568 52.916 28.7212C53.1764 29.0564 53.4804 29.3577 53.8203 29.6177C53.9853 29.7493 54.1643 29.8635 54.3542 29.9584C54.453 30.0032 54.5518 30.051 54.6629 30.1048C54.769 30.1588 54.8592 30.238 54.9252 30.3349C54.9572 30.4493 54.9518 30.5705 54.9098 30.6818C54.8678 30.7931 54.7912 30.889 54.6906 30.9565C54.5069 31.0828 54.2958 31.1666 54.0734 31.2016V31.0999C54.3878 31.2845 54.6192 31.5768 54.7215 31.9188C54.7823 32.0808 54.8277 32.2478 54.8573 32.4178C54.8773 32.5896 54.8773 32.763 54.8573 32.9348C54.7601 33.6081 54.5852 34.2687 54.3357 34.9042C54.2277 35.2239 54.0919 35.5377 53.9962 35.8574C53.8984 36.1795 53.8252 36.5081 53.7771 36.8406C53.6753 37.507 53.629 38.1794 53.595 38.8518C53.5395 40.1996 53.5364 41.5413 53.5179 42.901C53.4993 44.2608 53.4716 45.6115 53.4037 46.9593Z" fill="#B16668"/>
<path d="M57.8325 60.141C56.8727 60.4906 55.6505 61.2527 54.3666 61.5903C53.018 61.9209 51.627 62.0598 50.2371 62.0027C49.5074 61.9933 48.7789 61.9434 48.0551 61.8533C47.2959 61.7547 46.654 61.3692 45.9688 61.0465C45.2836 60.7237 44.5553 60.3442 44.2991 59.6569C44.1633 59.2983 44.1787 58.8889 43.972 58.5631C43.8454 58.3629 43.6479 58.2165 43.5059 58.0282C43.3038 57.7014 43.1853 57.3325 43.1603 56.9524C43.0979 56.5452 42.9945 56.1448 42.8516 55.757C42.5456 54.901 42.1817 54.0654 41.7622 53.2558C41.7427 53.2288 41.735 53.1956 41.7406 53.1631C41.757 53.1309 41.7858 53.1063 41.8208 53.0944C42.096 53.0044 42.3913 52.9892 42.6748 53.0503C42.9583 53.1114 43.219 53.2465 43.4288 53.441C43.8432 53.8342 44.2145 54.2679 44.5368 54.735C44.6787 54.9083 44.83 55.0757 44.9904 55.2371C45.1057 55.3611 45.2375 55.4696 45.3824 55.5598C45.5329 55.6435 45.6936 55.7087 45.8608 55.7541C46.546 55.9752 47.262 56.0941 47.9841 56.1067C48.2033 56.1067 49.3853 56.1067 49.4625 55.766C49.4872 55.6524 49.3791 55.5598 49.2464 55.4851C48.9378 55.3088 48.7835 55.246 48.7002 55.1863C48.424 55.0222 48.1814 54.8105 47.9841 54.5617C47.8698 54.3985 47.7947 54.2126 47.7643 54.0177C47.7338 53.8227 47.7488 53.6237 47.8082 53.4351C47.8172 53.3998 47.8378 53.3684 47.8669 53.3454C47.8878 53.3366 47.9104 53.3321 47.9332 53.3321C47.956 53.3321 47.9786 53.3366 47.9996 53.3454C48.7958 53.5785 49.5149 53.9431 50.3482 54.0387C51.1682 54.1231 51.9776 54.2852 52.7648 54.5228C53.3051 54.7342 53.8562 54.9187 54.416 55.0757C54.7441 55.1512 55.0847 55.1619 55.4172 55.1069C55.7497 55.052 56.0674 54.9326 56.3511 54.7559C57.7152 54.0268 60.7089 51.7018 62.3076 50.6021L68.3537 47.1565C68.3537 47.1565 68.7734 48.3518 69.19 49.7833C69.9894 52.5356 69.8968 53.0705 68.6283 54.2419C66.5111 56.2023 62.4712 58.4496 57.8325 60.141Z" fill="#FFA8A7"/>
<path d="M41.8054 53.1034C41.9732 53.036 42.153 53.0014 42.3347 53.0014C42.5163 53.0014 42.6962 53.036 42.864 53.1034C43.2018 53.2342 43.5039 53.4387 43.7467 53.701C43.9936 53.961 44.2004 54.2509 44.4164 54.5288C44.5213 54.6693 44.6417 54.7978 44.7621 54.9293C44.8824 55.0608 44.9935 55.1952 45.1262 55.3118C45.3881 55.5378 45.7079 55.6915 46.0521 55.7571C46.3961 55.8544 46.7468 55.9283 47.1015 55.9782C47.4559 56.0285 47.8144 56.0475 48.1724 56.035C48.5245 56.0375 48.8746 55.9851 49.2094 55.8796C49.373 55.8138 49.4285 55.6943 49.2835 55.5807C49.1384 55.4672 48.9748 55.4074 48.8205 55.3207C48.6599 55.2352 48.508 55.1352 48.3668 55.0219C48.218 54.9157 48.0842 54.7911 47.9687 54.6513C47.8532 54.5074 47.7684 54.3426 47.7191 54.1667C47.6698 53.9907 47.6571 53.8071 47.6817 53.6263C47.6926 53.5343 47.7154 53.4439 47.7496 53.3574C47.7619 53.3281 47.7835 53.3034 47.8112 53.2868C47.8389 53.2701 47.8714 53.2624 47.9039 53.2647C47.9525 53.2697 48.0002 53.2808 48.0459 53.2976C48.2187 53.3514 48.3884 53.4112 48.5582 53.4709C48.8977 53.5935 49.2341 53.722 49.5767 53.8236C49.9203 53.9218 50.2726 53.9888 50.6291 54.0238C51.3456 54.1207 52.0513 54.2818 52.737 54.5049C52.0463 54.3024 51.3375 54.1634 50.6198 54.0895C50.2587 54.0568 49.9013 53.9928 49.552 53.8983C49.2032 53.7967 48.8668 53.6712 48.5273 53.5546C48.3576 53.4948 48.1878 53.4381 48.015 53.3903C47.9778 53.3744 47.9382 53.3643 47.8977 53.3604C47.8669 53.3604 47.8576 53.3604 47.8391 53.3992C47.8119 53.4768 47.7933 53.5569 47.7835 53.6383C47.7618 53.8055 47.775 53.9752 47.8221 54.1374C47.8693 54.2996 47.9496 54.451 48.0582 54.5826C48.1704 54.714 48.2989 54.8315 48.4409 54.9323C48.5813 55.0399 48.7322 55.134 48.8915 55.2132C49.0534 55.2931 49.211 55.3808 49.3637 55.4761C49.4073 55.5077 49.444 55.5473 49.4717 55.5927C49.4875 55.6186 49.4975 55.6473 49.5012 55.6772C49.5049 55.707 49.5023 55.7372 49.4933 55.766C49.4748 55.8164 49.4446 55.862 49.405 55.8993C49.3654 55.9366 49.3175 55.9646 49.2649 55.9812C48.9129 56.0942 48.5432 56.1468 48.1724 56.1366C47.809 56.1461 47.4454 56.1241 47.086 56.0708C46.7271 56.0151 46.3724 55.9363 46.0243 55.8347C45.8477 55.7882 45.6745 55.7303 45.5059 55.6614C45.3355 55.5905 45.1805 55.4892 45.0491 55.3626C44.9164 55.2401 44.8053 55.1026 44.6849 54.9711C44.5645 54.8396 44.4473 54.7051 44.3423 54.5617C44.1263 54.2808 43.9226 53.9939 43.6849 53.7339C43.457 53.4649 43.1675 53.2511 42.8393 53.1093C42.5088 52.9764 42.1375 52.9742 41.8054 53.1034Z" fill="#B16668"/>
<path d="M62.0854 50.7605C63.1594 49.9656 65.4032 49.1707 67.0235 49.5831C66.0976 48.6238 63.2551 49.2095 62.0854 49.8281V50.7605Z" fill="#F28F8F"/>
<path d="M52.7926 89.971C52.8562 90.3467 52.8086 90.7322 52.6552 91.0828C52.5018 91.4333 52.2489 91.7346 51.9259 91.9517C51.6028 92.1688 51.2229 92.2927 50.83 92.3092C50.4372 92.3257 50.0476 92.2341 49.7063 92.0449L23.1334 77.1897C22.4552 76.8115 21.9137 76.2404 21.5824 75.554C21.2512 74.8675 21.1461 74.0989 21.2816 73.3526L26.9326 60.4249H23.5377L14.322 86.0801C14.2814 86.1996 14.2788 86.3282 14.3146 86.4491C14.3504 86.57 14.4229 86.6778 14.5228 86.7583C14.6226 86.8388 14.7451 86.8885 14.8744 86.9008C15.0037 86.913 15.1338 86.8874 15.2479 86.8272C15.3689 86.7581 15.4641 86.6534 15.5195 86.5284L18.0348 80.7698C18.5011 80.2747 19.1285 79.9492 19.8124 79.8475C20.4964 79.7458 21.1957 79.8741 21.7939 80.2109L51.3359 96.7277C52.2537 97.249 53.0432 97.9578 53.6492 98.8048C54.2552 99.6517 54.6633 100.616 54.845 101.632L52.7926 89.971Z" fill="#64B08C"/>
<path opacity="0.2" d="M52.7926 89.971C52.8562 90.3467 52.8086 90.7322 52.6552 91.0828C52.5018 91.4333 52.2489 91.7346 51.9259 91.9517C51.6028 92.1688 51.2229 92.2927 50.83 92.3092C50.4372 92.3257 50.0476 92.2341 49.7063 92.0449L23.1334 77.1897C22.4552 76.8115 21.9137 76.2404 21.5824 75.554C21.2512 74.8675 21.1461 74.0989 21.2816 73.3526L26.9326 60.4249H23.5377L14.322 86.0801C14.2814 86.1996 14.2788 86.3282 14.3146 86.4491C14.3504 86.57 14.4229 86.6778 14.5228 86.7583C14.6226 86.8388 14.7451 86.8885 14.8744 86.9008C15.0037 86.913 15.1338 86.8874 15.2479 86.8272C15.3689 86.7581 15.4641 86.6534 15.5195 86.5284L18.0348 80.7698C18.5011 80.2747 19.1285 79.9492 19.8124 79.8475C20.4964 79.7458 21.1957 79.8741 21.7939 80.2109L51.3359 96.7277C52.2537 97.249 53.0432 97.9578 53.6492 98.8048C54.2552 99.6517 54.6633 100.616 54.845 101.632L52.7926 89.971Z" fill="white"/>
<path d="M57.7615 94.2204C57.564 94.3528 57.3329 94.4304 57.0932 94.4448C56.8535 94.4592 56.6143 94.4099 56.4014 94.3022C56.1885 94.1945 56.01 94.0326 55.8853 93.8338C55.7606 93.6351 55.6943 93.4071 55.6937 93.1745L55.5518 91.755L55.5919 92.1764L54.2925 79.1262C54.1951 77.9947 53.8595 76.8945 53.3065 75.8934C52.7534 74.8922 51.9945 74.0113 51.0766 73.3048L25.0438 53.2827L24.5284 50.5125C23.6301 51.2024 22.9153 52.0904 22.4438 53.1024C21.9724 54.1144 21.7579 55.221 21.8183 56.3297C21.8787 57.4383 22.2123 58.5169 22.7911 59.4752C23.37 60.4336 24.1773 61.2439 25.1456 61.8384L47.3669 75.4325C48.3875 76.0575 49.2605 76.8838 49.9289 77.8575C50.5974 78.8312 51.0463 79.9305 51.2464 81.0835L56.3418 110.205C56.359 110.339 56.4305 110.461 56.5404 110.544C56.5949 110.585 56.6572 110.615 56.7237 110.633C56.7902 110.651 56.8597 110.656 56.9282 110.648C56.9967 110.639 57.0629 110.618 57.1229 110.585C57.1829 110.552 57.2356 110.508 57.2781 110.455C57.3205 110.403 57.3518 110.342 57.3701 110.278C57.3885 110.213 57.3935 110.146 57.385 110.08L56.6474 102.675C56.4591 100.475 57.2646 98.2607 59.2399 97.158" fill="#64B08C"/>
<path opacity="0.1" d="M57.7615 94.2204C57.564 94.3528 57.3329 94.4304 57.0932 94.4448C56.8535 94.4592 56.6143 94.4099 56.4014 94.3022C56.1885 94.1945 56.01 94.0326 55.8853 93.8338C55.7606 93.6351 55.6943 93.4071 55.6937 93.1745L55.5518 91.755L55.5919 92.1764L54.2925 79.1262C54.1951 77.9947 53.8595 76.8945 53.3065 75.8934C52.7534 74.8922 51.9945 74.0113 51.0766 73.3048L25.0438 53.2827L24.5284 50.5125C23.6301 51.2024 22.9153 52.0904 22.4438 53.1024C21.9724 54.1144 21.7579 55.221 21.8183 56.3297C21.8787 57.4383 22.2123 58.5169 22.7911 59.4752C23.37 60.4336 24.1773 61.2439 25.1456 61.8384L47.3669 75.4325C48.3875 76.0575 49.2605 76.8838 49.9289 77.8575C50.5974 78.8312 51.0463 79.9305 51.2464 81.0835L56.3418 110.205C56.359 110.339 56.4305 110.461 56.5404 110.544C56.5949 110.585 56.6572 110.615 56.7237 110.633C56.7902 110.651 56.8597 110.656 56.9282 110.648C56.9967 110.639 57.0629 110.618 57.1229 110.585C57.1829 110.552 57.2356 110.508 57.2781 110.455C57.3205 110.403 57.3518 110.342 57.3701 110.278C57.3885 110.213 57.3935 110.146 57.385 110.08L56.6474 102.675C56.4591 100.475 57.2646 98.2607 59.2399 97.158" fill="black"/>
</svg>
