<svg width="60" height="61" viewBox="0 0 60 61" fill="none" xmlns="http://www.w3.org/2000/svg">
<path d="M1 59.5577V16.0577C1 8.55777 15 -3.94234 27.5 3.05766C40 10.0577 40.5 19.5 39 27.5C38.078 32.4175 34.1451 35.6819 30.7848 37.6108C28.9945 38.6386 26.954 39.1006 24.8991 39.2982L17 40.0577V31.5577C33 30.7577 33 21.2244 31 16.5577C23.4 4.95771 13.8333 11.7244 10 16.5577V50.0577H38.3766C41.4096 50.0577 44.4843 49.4079 46.8827 47.5513C57.126 39.6221 48.3346 32.0742 42 29.0577L44 22.5577C57 25.0577 61 37.5577 59 46.5577C57.7353 52.2488 52.2222 56.2321 47.9916 58.3102C46.0622 59.258 43.9041 59.5577 41.7544 59.5577H1Z" fill="url(#paint0_linear_51_10)" stroke="black" stroke-opacity="0.05"/>
<defs>
<linearGradient id="paint0_linear_51_10" x1="30.2435" y1="1" x2="30.2435" y2="59.5577" gradientUnits="userSpaceOnUse">
<stop stop-color="#8FDAFF"/>
<stop offset="0.14005" stop-color="#8FDAFF"/>
<stop offset="0.848988" stop-color="#38EBD6" stop-opacity="0.81"/>
</linearGradient>
</defs>
</svg>
