<svg width="34" height="34" viewBox="0 0 34 34" fill="none" xmlns="http://www.w3.org/2000/svg">
<path d="M33.95 16.3383C33.9309 16.166 33.9117 15.9841 33.883 15.8118C33.8351 15.4289 33.7969 15.0364 33.7394 14.6439C33.3469 11.8678 32.3227 9.32148 30.7144 7.09104C29.336 5.16692 27.5842 3.60658 25.526 2.45785C23.6594 1.41443 21.6012 0.763478 19.3995 0.514587C18.7677 0.438005 18.1168 0.399719 17.485 0.399719C16.3649 0.399719 15.2545 0.514589 14.1441 0.744335V0.734764L13.9813 0.782628C13.7229 0.840064 13.474 0.897491 13.2155 0.9645C12.8901 1.05065 12.555 1.15596 12.2295 1.26126C11.9328 1.34742 11.6839 1.424 11.4446 1.51015C8.85036 2.43871 6.5912 3.99906 4.72452 6.15292C2.85784 8.29721 1.59424 10.7765 0.952868 13.5048C0.50295 15.4289 0.388077 17.353 0.598676 19.2292C0.818849 21.1438 1.30705 22.9339 2.05372 24.5421C2.86741 26.2843 3.97784 27.8351 5.34674 29.1466C6.87838 30.6112 8.67805 31.7504 10.8511 32.6311C11.7988 33.014 12.7273 33.1958 13.5889 33.3299C14.0388 33.4256 14.5078 33.5022 14.9673 33.5596C15.1301 33.5787 15.2832 33.5979 15.446 33.617C15.9437 33.7032 16.5755 33.7415 17.3318 33.7415C17.6381 33.7415 17.9349 33.7319 18.2125 33.7223L17.9827 33.8181L18.9783 33.6841C19.3995 33.6553 19.7345 33.6075 19.9068 33.5788L19.9547 33.5692C19.9834 33.5596 20.0026 33.55 20.0217 33.5405C21.2853 33.3586 22.5011 33.0618 23.6306 32.6406C25.1336 32.0758 26.5312 31.3196 27.7661 30.3719C29.2403 29.2423 30.4943 27.8734 31.4707 26.2843C32.4471 24.7144 33.1172 23.0488 33.4714 21.3161C33.5863 20.7417 33.6724 20.1578 33.749 19.5834C33.7873 19.3154 33.8256 19.0569 33.8639 18.7889C33.8734 18.741 33.883 18.6836 33.8926 18.6357L33.9117 18.5496L33.9213 16.3957L33.95 16.3383ZM20.8163 5.51154C22.0607 5.51154 23.0946 6.55497 23.085 7.78028C23.0754 9.00559 22.0416 10.049 20.8163 10.049C19.5909 10.049 18.5571 9.00559 18.5571 7.78028C18.5667 6.55497 19.6005 5.51154 20.8163 5.51154ZM23.3339 30.1613C22.4723 31.4727 21.3236 32.43 19.9356 33.014C19.6292 33.0522 19.3133 33.0905 18.9974 33.1193C17.887 33.215 16.7383 33.2054 15.5608 33.081C15.1492 33.0044 14.7471 32.9469 14.3547 32.8895C14.1441 32.8608 13.9335 32.8321 13.7229 32.7938C12.5167 32.5449 11.3488 32.162 10.248 31.6642C9.04182 31.1186 7.92181 30.4293 6.91667 29.6252C5.99769 28.8881 5.17444 28.0649 4.46606 27.165C3.61408 26.0833 2.9057 24.8963 2.36963 23.6231C1.87185 22.4265 1.53681 21.2874 1.34535 20.1195C1.27834 19.6792 1.22091 19.2197 1.16347 18.7698C1.13475 18.5687 1.1156 18.3677 1.08688 18.1667V16.2713C1.08688 16.2617 1.08688 16.2617 1.09645 16.2521C1.10603 16.2043 1.12518 16.1468 1.12518 16.0798C1.23048 14.7779 1.47936 13.5048 1.86227 12.3178C2.36005 10.7765 3.07801 9.32148 4.01613 7.99088C5.14571 6.38266 6.55291 4.98505 8.18985 3.8459C9.51088 2.92692 10.9276 2.21853 12.4114 1.72075C12.6603 1.64417 12.9188 1.57716 13.1772 1.51015C13.3017 1.47186 13.4357 1.44315 13.5601 1.40485C13.5218 1.68246 13.4931 1.9505 13.4548 2.21854C13.34 3.08008 13.2347 3.90333 13.1485 4.72658C12.9858 6.15292 12.8518 7.85686 13.0528 9.5991C13.2251 11.1116 13.6367 12.3656 14.2972 13.4473C14.929 14.4812 15.714 15.3619 16.6425 16.0511C17.5711 16.7499 18.5379 17.4296 19.5239 18.0518C19.8398 18.2528 20.1749 18.3964 20.5099 18.54C20.7397 18.6357 20.9599 18.7315 21.1705 18.8463C22.5489 19.5739 23.5445 20.445 24.2146 21.5171C24.8176 22.484 25.1048 23.5848 25.0665 24.7814C24.9804 26.7343 24.406 28.5339 23.3339 30.1613Z" fill="white"/>
<path d="M13.897 21.449H13.8587C12.3271 21.449 11.1305 22.6169 11.0827 24.1773C11.0444 25.6897 12.2697 26.9534 13.8205 26.9916C13.8396 26.9916 13.8683 26.9916 13.897 26.9916C15.3808 26.9916 16.6061 25.7568 16.6348 24.2347C16.6444 23.5072 16.3668 22.8084 15.8499 22.2819C15.3329 21.7554 14.6437 21.4586 13.897 21.449Z" fill="white"/>
</svg>
