<svg width="34" height="34" viewBox="0 0 34 34" fill="none" xmlns="http://www.w3.org/2000/svg">
<g clip-path="url(#clip0_27_138)">
<path d="M0.761688 17.0535C0.761688 7.89087 8.18927 0.463287 17.3519 0.463287C26.5145 0.463287 33.9421 7.89087 33.9421 17.0535C33.9421 26.2161 26.5145 33.6437 17.3519 33.6437C8.18927 33.6437 0.761688 26.2161 0.761688 17.0535Z" fill="white"/>
<path d="M12.4654 13.0283C12.4654 14.1667 11.9183 15.0891 11.2432 15.0891C10.5681 15.0891 10.0204 14.1667 10.0204 13.0283C10.0204 11.8899 10.5681 10.9681 11.2432 10.9681C11.9183 10.9681 12.4654 11.8905 12.4654 13.0283Z" fill="#EF5DA8"/>
<path d="M24.6866 13.0283C24.6866 14.1667 24.1389 15.0891 23.4638 15.0891C22.7887 15.0891 22.2415 14.1667 22.2415 13.0283C22.2415 11.8899 22.7887 10.9681 23.4638 10.9681C24.1389 10.9681 24.6866 11.8905 24.6866 13.0283Z" fill="#EF5DA8"/>
<path d="M6.20404 18.622C6.83628 24.2211 11.5847 28.5725 17.3521 28.5725C23.1194 28.5725 27.8678 24.2211 28.5001 18.622H6.20404Z" fill="#EF5DA8"/>
</g>
<defs>
<clipPath id="clip0_27_138">
<rect width="33.1804" height="33.1804" fill="white" transform="translate(0.761688 0.463287)"/>
</clipPath>
</defs>
</svg>
