<svg width="5" height="33" viewBox="0 0 5 33" fill="none" xmlns="http://www.w3.org/2000/svg">
<g clip-path="url(#clip0_27_159)">
<path d="M32.7349 16.4788C32.7349 25.4074 25.4986 32.6437 16.5701 32.6437C7.64156 32.6437 0.405281 25.4074 0.405281 16.4788C0.405281 7.55031 7.64156 0.314026 16.5701 0.314026C25.4986 0.314026 32.7349 7.55031 32.7349 16.4788ZM21.8679 23.8856C20.8512 22.7553 19.0769 21.5303 16.5701 21.5303C14.0633 21.5303 12.2889 22.7553 11.2723 23.8856C10.8998 24.3024 10.9314 24.8833 11.3481 25.3127C11.7649 25.6852 12.3458 25.6536 12.7752 25.2369C13.5139 24.416 14.7705 23.5509 16.5133 23.5509C18.3697 23.5509 19.6263 24.416 20.365 25.2369C20.7376 25.6536 21.3753 25.6852 21.7921 25.3127C22.2088 24.8833 22.2404 24.3024 21.8679 23.8856ZM11.5438 17.4891C12.6552 17.4891 13.5644 16.5862 13.5644 15.4685C13.5644 15.3738 13.5581 15.2791 13.5455 15.1907L14.2275 15.418C14.7579 15.538 15.3325 15.3044 15.5093 14.7803C15.6293 14.2499 15.3956 13.6753 14.8715 13.4985L8.80972 11.4778C8.27931 11.301 7.7047 11.5915 7.5279 12.1156C7.3511 12.646 7.64156 13.2206 8.16565 13.3974L10.1105 14.0415C9.74425 14.4077 9.52324 14.9129 9.52324 15.4685C9.52324 16.5862 10.4262 17.4891 11.5438 17.4891ZM23.0676 14.0289L24.9745 13.3974C25.4986 13.2206 25.7323 12.646 25.6123 12.1156C25.4355 11.5915 24.8609 11.301 24.3305 11.4778L18.2687 13.4985C17.7446 13.6753 17.4541 14.2499 17.6309 14.7803C17.8077 15.3044 18.3823 15.538 18.9127 15.418L19.6452 15.1718C19.6326 15.2665 19.6263 15.3675 19.6263 15.4685C19.6263 16.5862 20.5292 17.4891 21.6469 17.4891C22.7582 17.4891 23.6675 16.5862 23.6675 15.4685C23.6675 14.9066 23.4338 14.3951 23.0676 14.0289Z" fill="white"/>
</g>
<defs>
<clipPath id="clip0_27_159">
<rect width="32.3296" height="32.3296" fill="white" transform="translate(0.405281 0.314026)"/>
</clipPath>
</defs>
</svg>
